<svg width="144" height="47" viewBox="0 0 144 47" fill="none" xmlns="http://www.w3.org/2000/svg">
<path d="M9.24661 46.9975C8.87454 46.9975 8.51145 46.9927 8.1423 46.9844C7.37757 46.9744 6.61463 46.9074 5.85973 46.784C5.15583 46.662 4.47393 46.4351 3.83654 46.1108C3.205 45.7892 2.62897 45.3674 2.13054 44.8617C1.6249 44.362 1.20393 43.7823 0.88431 43.1458C0.561171 42.5052 0.33754 41.8185 0.221206 41.1096C0.0955754 40.348 0.0276042 39.5778 0.0178782 38.8058C0.0101359 38.5467 0 37.6839 0 37.6839V9.3004C0 9.3004 0.0107953 8.45087 0.0179392 8.20129C0.0272518 7.4305 0.0948278 6.66155 0.220082 5.90109C0.336631 5.19031 0.560436 4.50163 0.883749 3.85887C1.20219 3.2228 1.62083 2.64275 2.12342 2.14122C2.62546 1.63493 3.20332 1.21101 3.83594 0.884918C4.47187 0.561628 5.15248 0.336334 5.85496 0.216582C6.61233 0.0919507 7.37792 0.0245691 8.1453 0.0150024L9.24721 0H134.747L135.862 0.0156044C136.622 0.0246958 137.381 0.0914763 138.131 0.215378C138.841 0.336632 139.529 0.563498 140.172 0.888518C141.439 1.54568 142.47 2.58537 143.121 3.86187C143.439 4.50019 143.66 5.18325 143.775 5.88789C143.901 6.6546 143.972 7.42959 143.987 8.20669C143.99 8.55466 143.99 8.92843 143.99 9.3004C144 9.76116 144 10.1997 144 10.6419V36.3568C144 36.8032 144 37.2388 143.99 37.6779C143.99 38.0775 143.99 38.4435 143.986 38.8202C143.971 39.5835 143.902 40.3446 143.777 41.0976C143.663 41.8115 143.441 42.5036 143.117 43.1495C142.796 43.7791 142.377 44.3537 141.877 44.8521C141.378 45.3605 140.801 45.7848 140.168 46.1085C139.527 46.4353 138.84 46.663 138.131 46.784C137.377 46.908 136.613 46.975 135.849 46.9844C135.491 46.9927 135.116 46.9975 134.753 46.9975L133.429 47L9.24661 46.9975Z" fill="black"/>
<path fill-rule="evenodd" clip-rule="evenodd" d="M90.3359 34.6296C88.3322 34.6296 86.8659 33.6461 86.6972 32.1482L84.3655 32.1481C84.5127 34.8802 86.7917 36.6085 90.1671 36.6085C93.7747 36.6085 96.0429 34.8386 96.0429 32.0127C96.0429 29.8033 94.7454 28.5584 91.6226 27.8255L89.9457 27.4168C87.9839 26.9358 87.1819 26.3074 87.1819 25.2395C87.1819 23.8996 88.4375 22.979 90.2724 22.979C92.1074 22.979 93.363 23.8889 93.5006 25.3963H95.8C95.7258 22.7901 93.521 21 90.3048 21C87.0551 21 84.7665 22.7901 84.7665 25.3963C84.7665 27.5012 86.064 28.7984 88.8589 29.4683L90.8314 29.9399C92.804 30.421 93.6371 31.123 93.6371 32.2954C93.6371 33.6461 92.2558 34.6296 90.3359 34.6296ZM50.6522 32.2741H44.8506L43.4573 36.3568H41L46.4952 21.2519H49.0483L54.5435 36.3568H52.0442L50.6522 32.2741ZM45.4515 30.3902H50.0502L47.7832 23.7642H47.7197L45.4515 30.3902ZM61.7803 36.472C64.5656 36.472 66.4113 34.2733 66.4113 30.8511C66.4113 27.4383 64.5547 25.2289 61.7384 25.2289C60.2891 25.1825 58.9316 25.9305 58.205 27.1758H58.1631V25.3441H55.9583V40H58.236V34.5453H58.2888C58.9844 35.7984 60.3406 36.5468 61.7803 36.472ZM64.07 30.8511C64.07 28.6214 62.909 27.1556 61.1375 27.1556C59.3971 27.1556 58.2265 28.6523 58.2265 30.8511C58.2265 33.07 59.3971 34.556 61.1375 34.556C62.909 34.556 64.07 33.1009 64.07 30.8511ZM73.9939 36.472C76.7792 36.472 78.6249 34.2733 78.6249 30.8511C78.6249 27.4383 76.7685 25.2289 73.952 25.2289C72.5028 25.1825 71.1452 25.9305 70.4186 27.1758H70.3767V25.3441H68.1719V40H70.4497V34.5453H70.5024C71.1981 35.7984 72.5542 36.5468 73.9939 36.472ZM76.2837 30.8511C76.2837 28.6214 75.1226 27.1556 73.3512 27.1556C71.6108 27.1556 70.4402 28.6523 70.4402 30.8511C70.4402 33.07 71.6108 34.556 73.3512 34.556C75.1227 34.556 76.2837 33.1009 76.2837 30.8511ZM100.959 22.7379V25.3441H103.069V27.1342H100.959V33.2054C100.959 34.1486 101.381 34.5881 102.309 34.5881C102.56 34.5837 102.81 34.5663 103.058 34.5358V36.3152C102.641 36.3925 102.217 36.4276 101.793 36.4197C99.5464 36.4197 98.6703 35.5823 98.6703 33.4465V27.1342H97.0568V25.3441H98.6702V22.7379H100.959ZM109.554 25.2087C106.348 25.2087 104.291 27.3861 104.291 30.8511C104.291 34.3256 106.327 36.4934 109.554 36.4934C112.782 36.4934 114.818 34.3256 114.818 30.8511C114.818 27.386 112.772 25.2087 109.554 25.2087ZM112.497 30.8511C112.497 28.4741 111.4 27.0713 109.554 27.0713C107.708 27.0713 106.612 28.4848 106.612 30.8511C106.612 33.2375 107.708 34.6297 109.554 34.6297C111.4 34.6297 112.497 33.2375 112.497 30.8511ZM118.869 25.3441H116.696L116.696 36.3568H118.974V29.8247C118.898 29.1639 119.117 28.5031 119.574 28.016C120.03 27.5289 120.678 27.264 121.348 27.291C121.694 27.281 122.04 27.3271 122.371 27.4276V25.3132C122.115 25.2562 121.853 25.2279 121.591 25.2289C120.339 25.1814 119.224 26.0119 118.922 27.2185H118.869V25.3441ZM132.873 33.1223C132.567 35.1214 130.605 36.4934 128.095 36.4934C124.867 36.4934 122.863 34.3469 122.863 30.9033C122.863 27.449 124.877 25.2087 127.999 25.2087C131.069 25.2087 133 27.3017 133 30.6408V31.4153H125.162V31.5519C125.089 32.3718 125.374 33.1833 125.946 33.7801C126.517 34.377 127.319 34.7015 128.148 34.6712C129.253 34.774 130.295 34.1441 130.71 33.1222L132.873 33.1223ZM130.721 29.8354H125.173C125.171 29.0919 125.469 28.3784 125.999 27.8535C126.53 27.3287 127.25 27.0359 127.999 27.0404C128.742 27.0245 129.459 27.3171 129.975 27.8477C130.492 28.3783 130.762 29.0987 130.721 29.8354Z" fill="white"/>
<path fill-rule="evenodd" clip-rule="evenodd" d="M71.7941 9H72.8866V16.8771H71.7941V9ZM48.2379 10.3989C47.5693 9.67633 46.6194 9.29867 45.6495 9.3699H43V16.8772H45.6495C47.8344 16.8772 49.101 15.4986 49.101 13.1002C49.2233 12.1129 48.9065 11.1215 48.2379 10.3989ZM45.5223 15.8155H44.1393V10.4308H45.5223C46.2117 10.3917 46.8821 10.6699 47.3502 11.1894C47.8184 11.7089 48.0351 12.4154 47.9413 13.1155C48.0425 13.8186 47.8288 14.5309 47.3595 15.0547C46.8903 15.5784 46.2154 15.8579 45.5223 15.8155ZM50.3879 14.0419C50.293 13.0264 50.7688 12.0437 51.6157 11.5058C52.4626 10.9679 53.5342 10.9679 54.3811 11.5058C55.2281 12.0437 55.7038 13.0264 55.6089 14.0419C55.7056 15.0585 55.2303 16.0432 54.3826 16.5823C53.535 17.1213 52.4618 17.1213 51.6142 16.5823C50.7665 16.0432 50.2912 15.0585 50.3879 14.0419ZM53.0002 12.0957C53.9462 12.0957 54.4852 12.8139 54.4852 14.0419H54.4852C54.4852 15.2749 53.9462 15.9925 53.0002 15.9925C52.0506 15.9925 51.5164 15.2799 51.5164 14.042C51.5164 12.8139 52.0506 12.0957 53.0002 12.0957ZM62.549 16.8771H61.4158L60.2717 12.7045H60.1852L59.046 16.8771H57.9235L56.3976 11.2116H57.5057L58.4973 15.5347H58.579L59.7171 11.2116H60.7651L61.9032 15.5347H61.9896L62.9764 11.2116H64.0689L62.549 16.8771ZM66.4039 11.2116H65.3522L65.3522 16.8771H66.4447V13.5627C66.4055 13.1857 66.5291 12.8099 66.7832 12.534C67.0372 12.258 67.3964 12.1094 67.7664 12.127C68.5744 12.127 68.9609 12.5798 68.9609 13.4903V16.8771H70.0534V13.2095C70.1335 12.6555 69.9631 12.0944 69.5904 11.6844C69.2176 11.2745 68.683 11.0603 68.1374 11.1023C67.4328 11.0437 66.7694 11.449 66.4855 12.1117H66.4039V11.2116ZM75.6332 11.5057C74.7862 12.0436 74.3104 13.0264 74.4052 14.0419C74.3086 15.0586 74.784 16.0432 75.6317 16.5822C76.4795 17.1213 77.5526 17.1213 78.4003 16.5822C79.248 16.0432 79.7234 15.0586 79.6268 14.0419C79.7217 13.0264 79.2458 12.0436 78.3988 11.5057C77.5519 10.9678 76.4802 10.9678 75.6332 11.5057ZM78.5025 14.0419C78.5025 12.8139 77.9635 12.0957 77.0175 12.0957C76.0679 12.0957 75.5337 12.8139 75.5337 14.042C75.5337 15.2799 76.068 15.9925 77.0175 15.9925C77.9635 15.9925 78.5026 15.2749 78.5025 14.0419ZM82.8358 13.5836C81.5188 13.6672 80.7769 14.2551 80.7769 15.2749C80.7788 15.7585 80.9804 16.2187 81.3319 16.5417C81.6835 16.8647 82.1522 17.0205 82.6221 16.9705C83.2924 17.0022 83.9276 16.6624 84.2848 16.081H84.3712V16.8771H85.4229V13.0062C85.4229 11.8094 84.6401 11.1023 83.2524 11.1023C81.9966 11.1023 81.1023 11.7265 80.9906 12.6996H82.0482C82.1695 12.2991 82.5921 12.0699 83.2019 12.0699C83.9487 12.0699 84.3352 12.4078 84.3352 13.0062V13.4952L82.8358 13.5836ZM84.3352 14.7908V14.3172L82.9834 14.4056C82.2211 14.4578 81.8754 14.7232 81.8754 15.2227C81.8754 15.7326 82.3075 16.0293 82.9019 16.0293C83.2537 16.0658 83.6049 15.9545 83.8751 15.7211C84.1453 15.4876 84.3113 15.1519 84.3352 14.7908ZM89.1564 11.1177C87.7579 11.1177 86.8587 12.2517 86.8587 14.0419C86.8587 15.8364 87.7482 16.9705 89.1564 16.9705C89.8704 16.9974 90.54 16.6167 90.8948 15.982H90.9812V16.8771H92.028V9H90.9356V12.1116H90.8539C90.5241 11.4717 89.8626 11.0844 89.1564 11.1177ZM87.9872 14.0419C87.9872 15.2436 88.5406 15.9667 89.4662 15.9667C90.387 15.9667 90.956 15.2332 90.956 14.0469C90.956 12.8661 90.381 12.1221 89.4662 12.1221C88.5466 12.1221 87.9871 12.8501 87.9871 14.0419H87.9872ZM97.7757 11.5058C96.9288 12.0437 96.453 13.0264 96.548 14.0419C96.4512 15.0585 96.9266 16.0432 97.7742 16.5823C98.6219 17.1213 99.695 17.1213 100.543 16.5823C101.39 16.0432 101.866 15.0585 101.769 14.0419C101.864 13.0264 101.388 12.0437 100.541 11.5058C99.6943 10.9679 98.6226 10.9679 97.7757 11.5058ZM100.645 14.0419C100.645 12.8139 100.106 12.0957 99.1603 12.0957C98.2107 12.0957 97.6765 12.8139 97.6765 14.042C97.6765 15.2799 98.2107 15.9925 99.1603 15.9925C100.106 15.9925 100.645 15.2749 100.645 14.0419ZM104.286 11.2116H103.235V16.8771H104.327V13.5627C104.288 13.1857 104.412 12.8099 104.666 12.534C104.92 12.258 105.279 12.1094 105.649 12.127C106.457 12.127 106.843 12.5798 106.843 13.4903V16.8771H107.936V13.2095C108.016 12.6555 107.846 12.0944 107.473 11.6844C107.1 11.2745 106.566 11.0603 106.02 11.1023C105.315 11.0437 104.652 11.449 104.368 12.1117H104.286V11.2116ZM114.109 9.80112V11.2375H115.308V12.1792H114.109V15.0925C114.109 15.6859 114.348 15.9458 114.892 15.9458C115.031 15.9453 115.17 15.9367 115.308 15.92V16.8513C115.112 16.8872 114.913 16.9064 114.714 16.9085C113.499 16.9085 113.015 16.471 113.015 15.3787V12.1792H112.137V11.2374H113.015V9.80112H114.109ZM117.883 9H116.8L116.801 16.8771H117.893V13.5682C117.859 13.1795 117.995 12.7953 118.264 12.5184C118.532 12.2414 118.907 12.1 119.287 12.1319C120.059 12.1319 120.47 12.5902 120.47 13.4951V16.8771H121.564V13.2193C121.636 12.6682 121.465 12.1128 121.096 11.7044C120.728 11.2959 120.2 11.077 119.658 11.1072C118.942 11.0478 118.267 11.4537 117.97 12.1221H117.883V9ZM127.934 15.3474C127.628 16.4161 126.617 17.1066 125.535 16.9865C124.797 17.0064 124.088 16.6933 123.595 16.1302C123.103 15.567 122.877 14.8108 122.978 14.0622C122.88 13.3115 123.105 12.5541 123.595 11.9862C124.084 11.4183 124.791 11.0958 125.531 11.1023C127.071 11.1023 128 12.1793 128 13.9584V14.3485H124.091V14.4112C124.057 14.8316 124.197 15.2474 124.478 15.5564C124.758 15.8654 125.153 16.0389 125.565 16.0342C126.1 16.0999 126.62 15.8285 126.882 15.3474L127.934 15.3474ZM126.887 13.5216H124.091C124.086 13.1309 124.236 12.7547 124.505 12.4784C124.775 12.2021 125.143 12.049 125.525 12.0539C125.901 12.0451 126.264 12.1994 126.523 12.4789C126.783 12.7584 126.915 13.1371 126.887 13.5216Z" fill="white"/>
<path fill-rule="evenodd" clip-rule="evenodd" d="M27.3669 10C27.4871 11.5675 26.9906 13.1201 25.9829 14.328C25.0052 15.5422 23.5238 16.2416 21.9635 16.2255C21.8643 14.7031 22.3752 13.2038 23.3838 12.0577C24.4051 10.8962 25.8273 10.1615 27.3669 10ZM32.3013 19.2104C30.5065 20.3121 29.4021 22.2551 29.375 24.3585C29.3775 26.7383 30.8049 28.886 33 29.8131C32.5778 31.1824 31.9415 32.4766 31.1145 33.6475C30.0038 35.3063 28.8394 36.927 26.9911 36.9569C26.1121 36.9772 25.5188 36.7248 24.9005 36.4618C24.2556 36.1875 23.5835 35.9017 22.5319 35.9017C21.4166 35.9017 20.7145 36.1967 20.0373 36.4813C19.4521 36.7272 18.8856 36.9653 18.0871 36.9983C16.3269 37.0634 14.9817 35.2278 13.8307 33.5845C11.5302 30.2286 9.73884 24.127 12.1404 19.9753C13.2682 17.9518 15.3768 16.6678 17.6948 16.593C18.6931 16.5725 19.651 16.9567 20.4909 17.2935C21.1331 17.5511 21.7064 17.781 22.1758 17.781C22.5884 17.781 23.1456 17.5602 23.795 17.3028C24.8179 16.8974 26.0696 16.4014 27.3451 16.5351C29.3272 16.597 31.1639 17.5885 32.3013 19.2104Z" fill="white"/>
</svg>
