<svg width="166" height="49" viewBox="0 0 166 49" fill="none" xmlns="http://www.w3.org/2000/svg">
<rect width="166" height="49" rx="5" fill="black"/>
<path fill-rule="evenodd" clip-rule="evenodd" d="M58.4073 28.4898V30.7127H63.6962C63.6133 31.7597 63.1818 32.7476 62.4719 33.516C61.4019 34.6153 59.9212 35.2074 58.395 35.1461C55.1495 35.1461 52.5184 32.4922 52.5184 29.2184C52.5184 25.9447 55.1495 23.2908 58.395 23.2908C59.886 23.2663 61.3257 23.8392 62.3985 24.8839L63.9533 23.3155C62.4902 21.8211 60.4895 20.988 58.4073 21.0062C55.4432 20.8898 52.6536 22.4185 51.1373 24.9901C49.6209 27.5617 49.6209 30.764 51.1373 33.3356C52.6536 35.9072 55.4432 37.4359 58.4073 37.3195C60.5275 37.4162 62.5855 36.5831 64.0513 35.0349C65.3339 33.6134 66.0188 31.7448 65.9612 29.8236C65.9651 29.3555 65.9241 28.8882 65.8387 28.4281L58.4073 28.4898ZM71.9847 26.8721C69.1126 26.8789 66.7892 29.2317 66.7937 32.1287C66.7982 35.0257 69.1289 37.3712 72.001 37.3689C74.8731 37.3667 77.2002 35.0175 77.2002 32.1205C77.2203 30.7181 76.6752 29.3675 75.6897 28.3781C74.7042 27.3887 73.3627 26.8452 71.9724 26.8721H71.9847ZM78.2041 32.1369C78.1951 29.2415 80.5124 26.8857 83.3828 26.8721C84.7731 26.8452 86.1146 27.3887 87.1001 28.3781C88.0856 29.3675 88.6307 30.7181 88.6106 32.1205C88.6105 35.0159 86.2859 37.3644 83.4154 37.3689C80.545 37.3734 78.2131 35.0323 78.2041 32.1369ZM80.3123 33.5017C80.8714 34.6821 82.089 35.3979 83.3828 35.3066C84.1949 35.2876 84.9649 34.9386 85.5182 34.3387C86.0714 33.7388 86.361 32.9389 86.3211 32.1205C86.318 30.8123 85.5223 29.639 84.3148 29.1617C83.1072 28.6845 81.7331 29.0003 80.8497 29.9582C79.9664 30.9161 79.7533 32.3213 80.3123 33.5017ZM68.906 33.5112C69.469 34.6909 70.6902 35.403 71.9847 35.3066H71.9724C72.7845 35.2876 73.5545 34.9386 74.1078 34.3387C74.661 33.7388 74.9506 32.9389 74.9107 32.1205C74.9072 30.8113 74.11 29.6374 72.9009 29.1613C71.6918 28.6851 70.3169 29.0035 69.4349 29.964C68.5528 30.9244 68.343 32.3315 68.906 33.5112ZM109.424 26.8721C111.453 26.9475 113.226 28.2789 113.88 30.2187L114.137 30.7744L107.171 33.6765C107.607 34.6795 108.608 35.3113 109.693 35.2696C110.741 35.2722 111.713 34.7187 112.252 33.8124L114.027 35.0473C113.06 36.5063 111.432 37.3784 109.693 37.3689C108.31 37.3894 106.979 36.8418 106.004 35.8519C105.03 34.8621 104.496 33.5151 104.526 32.1205C104.442 30.7578 104.92 29.4206 105.848 28.4263C106.776 27.432 108.07 26.8694 109.424 26.8721ZM106.779 31.9723C106.729 31.2007 106.989 30.4412 107.5 29.865C108.011 29.2889 108.731 28.9446 109.497 28.9097C110.304 28.8561 111.065 29.2934 111.431 30.0211L106.779 31.9723ZM103.412 37.0602H101.123V21.6237H103.412V37.0602ZM97.3765 28.0453H97.2908C96.5929 27.2582 95.5952 26.809 94.5484 26.8103C91.7694 26.9463 89.5855 29.2586 89.5855 32.0649C89.5855 34.8713 91.7694 37.1836 94.5484 37.3195C95.5986 37.3374 96.6028 36.8852 97.2908 36.0846H97.3643V36.8379C97.3643 38.8509 96.2991 39.9252 94.5851 39.9252C93.4175 39.8977 92.3823 39.1609 91.9651 38.0605L89.9695 38.9002C90.738 40.7857 92.5641 42.0121 94.5851 41.9999C97.2663 41.9999 99.4823 40.4069 99.4823 36.5292V27.1808H97.3765V28.0453ZM94.7527 35.3063L94.7565 35.3066H94.7443L94.7527 35.3063ZM96.8157 34.316C96.2903 34.9157 95.5452 35.2732 94.7527 35.3063C93.1175 35.159 91.864 33.7769 91.864 32.1205C91.864 30.4629 93.1195 29.0799 94.7565 28.9344C95.5475 28.9754 96.2887 29.3367 96.8119 29.9365C97.3351 30.5364 97.5961 31.3239 97.5356 32.1205C97.6031 32.9208 97.343 33.7141 96.8157 34.316ZM124.605 21.6237H119.132V37.0602H121.422V31.2067H124.617C126.396 31.3356 128.096 30.4515 129.025 28.9159C129.953 27.3802 129.953 25.4502 129.025 23.9145C128.096 22.3788 126.396 21.4948 124.617 21.6237H124.605ZM121.409 29.0332H124.605L124.654 29.0703C126.104 29.0703 127.28 27.8843 127.28 26.4213C127.28 24.9584 126.104 23.7724 124.654 23.7724H121.409V29.0332ZM138.721 26.8103C137.017 26.7076 135.416 27.6341 134.644 29.169L136.676 30.0211C137.086 29.26 137.902 28.8144 138.758 28.885C139.345 28.8159 139.935 28.9875 140.395 29.3613C140.856 29.7352 141.148 30.28 141.206 30.8732V31.0338C140.471 30.6411 139.651 30.4375 138.819 30.441C136.627 30.441 134.411 31.6759 134.411 33.9112C134.455 34.874 134.883 35.7782 135.598 36.4178C136.313 37.0575 137.254 37.3782 138.207 37.3072C139.381 37.3923 140.508 36.824 141.145 35.8253H141.218V37.0602H143.422V31.1202C143.422 28.4157 141.39 26.8474 138.782 26.8474L138.721 26.8103ZM136.652 33.9606C136.652 34.8867 137.692 35.2696 138.439 35.2696L138.5 35.3066C139.88 35.2727 141.023 34.2192 141.182 32.8368C140.546 32.4791 139.828 32.3 139.1 32.3181C137.95 32.3181 136.652 32.7256 136.652 33.9606ZM151.453 27.1808L148.833 33.8741H148.76L146.042 27.1808H143.594L147.67 36.5415L145.344 41.7406H147.732L154 27.1808H151.453ZM133.163 37.0602H130.873V21.6237H133.163V37.0602Z" fill="white"/>
<path fill-rule="evenodd" clip-rule="evenodd" d="M85.4147 9.16724C83.9577 10.7586 83.9577 13.2467 85.4147 14.838C86.9177 16.3802 89.3458 16.3802 90.8488 14.838C92.312 13.2492 92.312 10.756 90.8488 9.16724C90.13 8.42016 89.152 8 88.1317 8C87.1115 8 86.1334 8.42016 85.4147 9.16724ZM57.5771 14.8635C58.211 14.1806 58.5458 13.2594 58.5034 12.3148C58.5034 12.1226 58.4869 11.9306 58.4539 11.7414H54.86V12.6589H57.54C57.5217 13.2368 57.3025 13.7886 56.9225 14.2136C56.076 15.0579 54.8204 15.2938 53.7398 14.8116C52.6592 14.3293 51.9658 13.2237 51.9824 12.009C51.9555 11.2052 52.2472 10.4247 52.7901 9.84766C53.3331 9.27058 54.0805 8.94666 54.86 8.95061C55.6355 8.90689 56.3857 9.24202 56.8855 9.85538L57.54 9.17999C57.2238 8.80477 56.826 8.51218 56.3791 8.32619C55.8991 8.11422 55.3821 8.00581 54.86 8.0076C53.8356 7.98405 52.8476 8.39924 52.1306 9.1545C51.0271 10.3005 50.697 12.0174 51.2929 13.5113C51.8887 15.0052 53.2944 15.985 54.86 15.9976C55.8807 16.0351 56.8687 15.6227 57.5771 14.8635ZM60.8252 9.12901H64.1598V8.18601H59.8372V15.832H64.1598V14.889H60.8252V12.4678H63.8634V11.5502H60.8252V9.12901ZM68.2107 15.832H67.2597V9.12901H65.1849V8.18601H70.3349V9.12901H68.2107V15.832ZM74.9169 8.18601H73.9659V15.832H74.9169V8.18601ZM79.1407 15.832H78.1897V9.12901H76.1149V8.18601H81.2032V9.12901H79.1407V15.832ZM86.1186 14.2008C87.2318 15.3446 89.0317 15.3446 90.1448 14.2008C91.2381 12.9573 91.2381 11.0607 90.1448 9.81715C89.0317 8.67336 87.2318 8.67336 86.1186 9.81715C85.0254 11.0607 85.0254 12.9573 86.1186 14.2008ZM94.4427 8.18601H93.2818V15.832H94.2451V9.60052L98.012 15.832H99V8.18601H98.049V14.1371L94.4427 8.18601Z" fill="white"/>
<path d="M85.4147 14.838L85.3409 14.9056L85.3431 14.9078L85.4147 14.838ZM85.4147 9.16724L85.3426 9.09789L85.3409 9.09971L85.4147 9.16724ZM90.8488 14.838L90.9204 14.9078L90.9224 14.9058L90.8488 14.838ZM90.8488 9.16724L90.9224 9.09948L90.9209 9.09791L90.8488 9.16724ZM58.5034 12.3148L58.4032 12.3148L58.4035 12.3193L58.5034 12.3148ZM57.5771 14.8635L57.6502 14.9317L57.6504 14.9315L57.5771 14.8635ZM58.4539 11.7414L58.5525 11.7242L58.538 11.6414H58.4539V11.7414ZM54.86 11.7414V11.6414H54.76V11.7414H54.86ZM54.86 12.6589H54.76V12.7589H54.86V12.6589ZM57.54 12.6589L57.64 12.6621L57.6432 12.5589H57.54V12.6589ZM56.9225 14.2136L56.9932 14.2845L56.9971 14.2802L56.9225 14.2136ZM53.7398 14.8116L53.699 14.9029L53.7398 14.8116ZM51.9824 12.009L52.0825 12.0104L52.0823 12.0057L51.9824 12.009ZM52.7901 9.84766L52.7173 9.77913H52.7173L52.7901 9.84766ZM54.86 8.95061L54.8595 9.05079L54.8656 9.05045L54.86 8.95061ZM56.8855 9.85538L56.8079 9.91855L56.879 10.0057L56.9573 9.92498L56.8855 9.85538ZM57.54 9.17999L57.6118 9.24958L57.6747 9.18467L57.6165 9.11555L57.54 9.17999ZM56.3791 8.32619L56.3387 8.41769L56.3407 8.41851L56.3791 8.32619ZM54.86 8.0076L54.8577 8.10761L54.8604 8.1076L54.86 8.0076ZM52.1306 9.1545L52.2026 9.22386L52.2031 9.22335L52.1306 9.1545ZM51.2929 13.5113L51.2 13.5484L51.2929 13.5113ZM54.86 15.9976L54.8637 15.8977L54.8608 15.8977L54.86 15.9976ZM64.1598 9.12901V9.22901H64.2598V9.12901H64.1598ZM60.8252 9.12901V9.02901H60.7252V9.12901H60.8252ZM64.1598 8.18601H64.2598V8.08601H64.1598V8.18601ZM59.8372 8.18601V8.08601H59.7372V8.18601H59.8372ZM59.8372 15.832H59.7372V15.932H59.8372V15.832ZM64.1598 15.832V15.932H64.2598V15.832H64.1598ZM64.1598 14.889H64.2598V14.789H64.1598V14.889ZM60.8252 14.889H60.7252V14.989H60.8252V14.889ZM60.8252 12.4678V12.3678H60.7252V12.4678H60.8252ZM63.8634 12.4678V12.5678H63.9634V12.4678H63.8634ZM63.8634 11.5502H63.9634V11.4502H63.8634V11.5502ZM60.8252 11.5502H60.7252V11.6502H60.8252V11.5502ZM67.2597 15.832H67.1597V15.932H67.2597V15.832ZM68.2107 15.832V15.932H68.3107V15.832H68.2107ZM67.2597 9.12901H67.3597V9.02901H67.2597V9.12901ZM65.1849 9.12901H65.0849V9.22901H65.1849V9.12901ZM65.1849 8.18601V8.08601H65.0849V8.18601H65.1849ZM70.3349 8.18601H70.4349V8.08601H70.3349V8.18601ZM70.3349 9.12901V9.22901H70.4349V9.12901H70.3349ZM68.2107 9.12901V9.02901H68.1107V9.12901H68.2107ZM73.9659 8.18601V8.08601H73.8659V8.18601H73.9659ZM74.9169 8.18601H75.0169V8.08601H74.9169V8.18601ZM73.9659 15.832H73.8659V15.932H73.9659V15.832ZM74.9169 15.832V15.932H75.0169V15.832H74.9169ZM78.1897 15.832H78.0897V15.932H78.1897V15.832ZM79.1407 15.832V15.932H79.2407V15.832H79.1407ZM78.1897 9.12901H78.2897V9.02901H78.1897V9.12901ZM76.1149 9.12901H76.0149V9.22901H76.1149V9.12901ZM76.1149 8.18601V8.08601H76.0149V8.18601H76.1149ZM81.2032 8.18601H81.3032V8.08601H81.2032V8.18601ZM81.2032 9.12901V9.22901H81.3032V9.12901H81.2032ZM79.1407 9.12901V9.02901H79.0407V9.12901H79.1407ZM90.1448 14.2008L90.2166 14.2707L90.2199 14.2669L90.1448 14.2008ZM86.1186 14.2008L86.0434 14.267L86.047 14.2706L86.1186 14.2008ZM90.1448 9.81715L90.22 9.75104L90.2165 9.74741L90.1448 9.81715ZM86.1186 9.81715L86.0469 9.74732L86.0435 9.75112L86.1186 9.81715ZM93.2818 8.18601V8.08601H93.1818V8.18601H93.2818ZM94.4427 8.18601L94.5283 8.13418L94.4991 8.08601H94.4427V8.18601ZM93.2818 15.832H93.1818V15.932H93.2818V15.832ZM94.2451 15.832V15.932H94.3451V15.832H94.2451ZM94.2451 9.60052L94.3307 9.54878L94.1451 9.24178V9.60052H94.2451ZM98.012 15.832L97.9264 15.8837L97.9556 15.932H98.012V15.832ZM99 15.832V15.932H99.1V15.832H99ZM99 8.18601H99.1V8.08601H99V8.18601ZM98.049 8.18601V8.08601H97.949V8.18601H98.049ZM98.049 14.1371L97.9635 14.189L98.149 14.4951V14.1371H98.049ZM85.4884 14.7705C84.0664 13.2174 84.0664 10.7879 85.4884 9.23477L85.3409 9.09971C83.8489 10.7293 83.8489 13.276 85.3409 14.9055L85.4884 14.7705ZM90.7772 14.7682C89.3134 16.2702 86.9501 16.2702 85.4863 14.7682L85.3431 14.9078C86.8853 16.4903 89.3781 16.4903 90.9204 14.9078L90.7772 14.7682ZM90.7752 9.23499C92.2032 10.7855 92.2032 13.2198 90.7752 14.7703L90.9224 14.9058C92.4208 13.2787 92.4208 10.7266 90.9224 9.0995L90.7752 9.23499ZM88.1317 8.1C89.1243 8.1 90.0765 8.50873 90.7767 9.23658L90.9209 9.09791C90.1836 8.33159 89.1797 7.9 88.1317 7.9V8.1ZM85.4867 9.23658C86.187 8.50873 87.1392 8.1 88.1317 8.1V7.9C87.0838 7.9 86.0799 8.33159 85.3426 9.09791L85.4867 9.23658ZM58.4035 12.3193C58.4447 13.2376 58.1192 14.1325 57.5038 14.7955L57.6504 14.9315C58.3028 14.2287 58.6469 13.2812 58.6032 12.3103L58.4035 12.3193ZM58.3554 11.7585C58.3874 11.9421 58.4034 12.1283 58.4034 12.3148L58.6034 12.3149C58.6034 12.1168 58.5864 11.9192 58.5525 11.7242L58.3554 11.7585ZM54.86 11.8414H58.4539V11.6414H54.86V11.8414ZM54.96 12.6589V11.7414H54.76V12.6589H54.96ZM57.54 12.5589H54.86V12.7589H57.54V12.5589ZM56.9971 14.2802C57.393 13.8375 57.6209 13.2631 57.64 12.6621L57.4401 12.6557C57.4225 13.2105 57.2121 13.7398 56.848 14.1469L56.9971 14.2802ZM53.699 14.9029C54.8179 15.4022 56.1177 15.1575 56.9931 14.2844L56.8519 14.1428C56.0343 14.9583 54.8228 15.1854 53.7805 14.7203L53.699 14.9029ZM51.8824 12.0076C51.8653 13.2609 52.5807 14.4038 53.699 14.9029L53.7805 14.7203C52.7377 14.2549 52.0664 13.1865 52.0824 12.0104L51.8824 12.0076ZM52.7173 9.77913C52.1558 10.3759 51.8547 11.1824 51.8824 12.0123L52.0823 12.0057C52.0563 11.228 52.3386 10.4735 52.863 9.91618L52.7173 9.77913ZM54.8605 8.85061C54.0528 8.84652 53.2789 9.18222 52.7173 9.77913L52.863 9.91618C53.3873 9.35894 54.1083 9.0468 54.8595 9.05061L54.8605 8.85061ZM56.963 9.79222C56.4434 9.15456 55.6625 8.8052 54.8544 8.85077L54.8656 9.05045C55.6084 9.00857 56.328 9.32947 56.8079 9.91855L56.963 9.79222ZM57.4682 9.11039L56.8137 9.78579L56.9573 9.92498L57.6118 9.24958L57.4682 9.11039ZM56.3407 8.41851C56.7726 8.59829 57.1575 8.88123 57.4636 9.24443L57.6165 9.11555C57.2902 8.72831 56.8794 8.42607 56.4175 8.23386L56.3407 8.41851ZM54.8604 8.1076C55.3684 8.10586 55.8715 8.21134 56.3387 8.41766L56.4195 8.23471C55.9267 8.01711 55.3959 7.90576 54.8597 7.9076L54.8604 8.1076ZM52.2031 9.22335C52.901 8.48817 53.8621 8.08468 54.8577 8.10758L54.8623 7.90763C53.8092 7.88341 52.7941 8.3103 52.0581 9.08565L52.2031 9.22335ZM51.3857 13.4743C50.8042 12.0163 51.1268 10.3412 52.2026 9.22386L52.0586 9.08514C50.9275 10.2599 50.5898 12.0185 51.2 13.5484L51.3857 13.4743ZM54.8608 15.8977C53.3373 15.8853 51.9671 14.9318 51.3857 13.4743L51.2 13.5484C51.8103 15.0787 53.2515 16.0847 54.8592 16.0976L54.8608 15.8977ZM57.504 14.7953C56.815 15.5337 55.8549 15.9341 54.8637 15.8977L54.8563 16.0976C55.9066 16.1362 56.9224 15.7118 57.6502 14.9317L57.504 14.7953ZM64.1598 9.02901H60.8252V9.22901H64.1598V9.02901ZM64.0598 8.18601V9.12901H64.2598V8.18601H64.0598ZM59.8372 8.28601H64.1598V8.08601H59.8372V8.28601ZM59.9372 15.832V8.18601H59.7372V15.832H59.9372ZM64.1598 15.732H59.8372V15.932H64.1598V15.732ZM64.0598 14.889V15.832H64.2598V14.889H64.0598ZM60.8252 14.989H64.1598V14.789H60.8252V14.989ZM60.7252 12.4678V14.889H60.9252V12.4678H60.7252ZM63.8634 12.3678H60.8252V12.5678H63.8634V12.3678ZM63.7634 11.5502V12.4678H63.9634V11.5502H63.7634ZM60.8252 11.6502H63.8634V11.4502H60.8252V11.6502ZM60.7252 9.12901V11.5502H60.9252V9.12901H60.7252ZM67.2597 15.932H68.2107V15.732H67.2597V15.932ZM67.1597 9.12901V15.832H67.3597V9.12901H67.1597ZM65.1849 9.22901H67.2597V9.02901H65.1849V9.22901ZM65.0849 8.18601V9.12901H65.2849V8.18601H65.0849ZM70.3349 8.08601H65.1849V8.28601H70.3349V8.08601ZM70.4349 9.12901V8.18601H70.2349V9.12901H70.4349ZM68.2107 9.22901H70.3349V9.02901H68.2107V9.22901ZM68.3107 15.832V9.12901H68.1107V15.832H68.3107ZM73.9659 8.28601H74.9169V8.08601H73.9659V8.28601ZM74.0659 15.832V8.18601H73.8659V15.832H74.0659ZM74.9169 15.732H73.9659V15.932H74.9169V15.732ZM74.8169 8.18601V15.832H75.0169V8.18601H74.8169ZM78.1897 15.932H79.1407V15.732H78.1897V15.932ZM78.0897 9.12901V15.832H78.2897V9.12901H78.0897ZM76.1149 9.22901H78.1897V9.02901H76.1149V9.22901ZM76.0149 8.18601V9.12901H76.2149V8.18601H76.0149ZM81.2032 8.08601H76.1149V8.28601H81.2032V8.08601ZM81.3032 9.12901V8.18601H81.1032V9.12901H81.3032ZM79.1407 9.22901H81.2032V9.02901H79.1407V9.22901ZM79.2407 15.832V9.12901H79.0407V15.832H79.2407ZM90.0732 14.1311C88.9993 15.2346 87.2642 15.2346 86.1903 14.1311L86.047 14.2706C87.1994 15.4547 89.0641 15.4547 90.2165 14.2706L90.0732 14.1311ZM90.0697 9.88318C91.1298 11.0889 91.1298 12.929 90.0697 14.1348L90.2199 14.2669C91.3464 12.9856 91.3464 11.0324 90.2199 9.75112L90.0697 9.88318ZM86.1903 9.8869C87.2642 8.78344 88.9993 8.78344 90.0732 9.8869L90.2165 9.74741C89.0641 8.56327 87.1994 8.56327 86.047 9.74741L86.1903 9.8869ZM86.1937 14.1348C85.1337 12.929 85.1337 11.0889 86.1937 9.88318L86.0435 9.75112C84.9171 11.0324 84.9171 12.9856 86.0435 14.2669L86.1937 14.1348ZM93.2818 8.28601H94.4427V8.08601H93.2818V8.28601ZM93.3818 15.832V8.18601H93.1818V15.832H93.3818ZM94.2451 15.732H93.2818V15.932H94.2451V15.732ZM94.1451 9.60052V15.832H94.3451V9.60052H94.1451ZM98.0976 15.7803L94.3307 9.54878L94.1596 9.65225L97.9264 15.8837L98.0976 15.7803ZM99 15.732H98.012V15.932H99V15.732ZM98.9 8.18601V15.832H99.1V8.18601H98.9ZM98.049 8.28601H99V8.08601H98.049V8.28601ZM98.149 14.1371V8.18601H97.949V14.1371H98.149ZM94.3572 8.23784L97.9635 14.189L98.1345 14.0853L94.5283 8.13418L94.3572 8.23784Z" fill="white"/>
<path d="M12.7856 9.66465C12.3814 10.146 12.1774 10.7622 12.2152 11.3877V38.6123C12.1774 39.2378 12.3814 39.8541 12.7856 40.3354L12.8724 40.4216L28.236 25.1846V24.8277L12.8724 9.57849L12.7856 9.66465Z" fill="url(#paint0_linear)"/>
<path d="M33.32 30.2677L28.236 25.1846V24.8277L33.32 19.7323L33.4316 19.7938L39.52 23.2277C41.256 24.2 41.256 25.8 39.52 26.7846L33.4564 30.2061L33.32 30.2677Z" fill="url(#paint1_linear)"/>
<path d="M33.4688 30.1938L28.236 25L12.7856 40.3354C13.5156 40.9723 14.599 41.0034 15.3648 40.4092L33.4812 30.1938" fill="url(#paint2_linear)"/>
<path d="M33.4688 19.8062L15.3524 9.59079C14.5866 8.99667 13.5032 9.02768 12.7732 9.66464L28.236 25L33.4688 19.8062Z" fill="url(#paint3_linear)"/>
<path opacity="0.2" d="M33.32 30.0831L15.3524 40.2369C14.6171 40.7826 13.6077 40.7826 12.8724 40.2369L12.7856 40.3231L12.8724 40.4092C13.6063 40.959 14.6185 40.959 15.3524 40.4092L33.4688 30.1938L33.32 30.0831Z" fill="black"/>
<path opacity="0.12" fill-rule="evenodd" clip-rule="evenodd" d="M33.32 30.0831L39.52 26.6C40.1607 26.2861 40.6187 25.6952 40.76 25C40.6961 25.7685 40.2232 26.4444 39.52 26.7723L33.4316 30.1938L33.32 30.0831ZM12.2125 38.6796C12.233 39.2211 12.4332 39.7434 12.7856 40.1631L12.8724 40.2615L12.7856 40.3477C12.3933 39.8804 12.1896 39.2861 12.2125 38.6796ZM12.2125 38.6796C12.2132 38.6613 12.2141 38.6429 12.2152 38.6246V38.44C12.2104 38.5201 12.2095 38.6001 12.2125 38.6796Z" fill="black"/>
<path opacity="0.25" d="M15.3524 9.76306L39.52 23.4C40.1607 23.7139 40.6187 24.3048 40.76 25C40.6961 24.2315 40.2232 23.5555 39.52 23.2277L15.3524 9.59075C13.6164 8.61845 12.2028 9.43075 12.2028 11.4V11.5846C12.24 9.60306 13.6288 8.79075 15.3524 9.76306Z" fill="white"/>
<defs>
<linearGradient id="paint0_linear" x1="21.5068" y1="-8.91871" x2="-3.06964" y2="-2.33352" gradientUnits="userSpaceOnUse">
<stop stop-color="#00A0FF"/>
<stop offset="0.01" stop-color="#00A1FF"/>
<stop offset="0.26" stop-color="#00BEFF"/>
<stop offset="0.51" stop-color="#00D2FF"/>
<stop offset="0.76" stop-color="#00DFFF"/>
<stop offset="1" stop-color="#00E3FF"/>
</linearGradient>
<linearGradient id="paint1_linear" x1="41.7892" y1="12.4458" x2="11.7936" y2="12.4458" gradientUnits="userSpaceOnUse">
<stop stop-color="#FFE000"/>
<stop offset="0.41" stop-color="#FFBD00"/>
<stop offset="0.78" stop-color="#FFA500"/>
<stop offset="1" stop-color="#FF9C00"/>
</linearGradient>
<linearGradient id="paint2_linear" x1="12.3316" y1="17.0339" x2="-7.21215" y2="50.1549" gradientUnits="userSpaceOnUse">
<stop stop-color="#FF3A44"/>
<stop offset="1" stop-color="#C31162"/>
</linearGradient>
<linearGradient id="paint3_linear" x1="0.720423" y1="5.42587" x2="9.44383" y2="20.216" gradientUnits="userSpaceOnUse">
<stop stop-color="#32A071"/>
<stop offset="0.07" stop-color="#2DA771"/>
<stop offset="0.48" stop-color="#15CF74"/>
<stop offset="0.8" stop-color="#06E775"/>
<stop offset="1" stop-color="#00F076"/>
</linearGradient>
</defs>
</svg>
